<?xml version="1.0" encoding="UTF-8" standalone="no"?>
<!-- Generator: Adobe Illustrator 19.0.0, SVG Export Plug-In . SVG Version: 6.00 Build 0)  -->

<svg
   xmlns:dc="http://purl.org/dc/elements/1.1/"
   xmlns:cc="http://creativecommons.org/ns#"
   xmlns:rdf="http://www.w3.org/1999/02/22-rdf-syntax-ns#"
   xmlns:svg="http://www.w3.org/2000/svg"
   xmlns="http://www.w3.org/2000/svg"
   xmlns:sodipodi="http://sodipodi.sourceforge.net/DTD/sodipodi-0.dtd"
   xmlns:inkscape="http://www.inkscape.org/namespaces/inkscape"
   version="1.1"
   id="Layer_1"
   x="0px"
   y="0px"
   viewBox="0 0 512.001 512.001"
   style="enable-background:new 0 0 512.001 512.001;"
   xml:space="preserve"
   sodipodi:docname="ic_launcher.svg"
   inkscape:version="0.92.4 (5da689c313, 2019-01-14)"><metadata
   id="metadata3857"><rdf:RDF><cc:Work
       rdf:about=""><dc:format>image/svg+xml</dc:format><dc:type
         rdf:resource="http://purl.org/dc/dcmitype/StillImage" /></cc:Work></rdf:RDF></metadata><defs
   id="defs3855" /><sodipodi:namedview
   pagecolor="#ffffff"
   bordercolor="#666666"
   borderopacity="1"
   objecttolerance="10"
   gridtolerance="10"
   guidetolerance="10"
   inkscape:pageopacity="0"
   inkscape:pageshadow="2"
   inkscape:window-width="1825"
   inkscape:window-height="1046"
   id="namedview3853"
   showgrid="false"
   inkscape:zoom="1.6074188"
   inkscape:cx="152.10722"
   inkscape:cy="369.80906"
   inkscape:window-x="84"
   inkscape:window-y="-11"
   inkscape:window-maximized="1"
   inkscape:current-layer="Layer_1" />
<path
   style="fill:#ff80af;fill-opacity:1;stroke-width:0.99148881"
   d="M 356.49136,347.68991 V 2.1788887 H 228.00929 V 396.74282 c 0,11.1136 5.41452,21.53019 14.50945,27.91636 L 347.2031,498.1533 c 29.09126,20.42465 69.23962,13.34146 89.58597,-15.80435 v 0 c 20.27197,-29.03772 13.2225,-69.00365 -15.76171,-89.35098 z"
   id="path3786"
   inkscape:connector-curvature="0" />
<g
   id="g3802"
   transform="matrix(0.99148877,0,0,0.99148877,2.1788781,2.1788887)">
	<path
   style="fill:#f2f2f2"
   d="m 307.989,418.79 c -0.589,16.033 -5.875,30.866 -14.521,43.171 l -51.066,-35.852 c -9.177,-6.441 -14.636,-16.945 -14.636,-28.153 v -62.39 c 44.336,0 80.27,35.933 80.27,80.27 -10e-4,0.991 -0.024,1.972 -0.047,2.954 z"
   id="path3788"
   inkscape:connector-curvature="0" />
	<path
   style="fill:#f2f2f2"
   d="m 422.448,394.168 c 10.481,7.364 18.122,17.28 22.659,28.315 l -62.794,89.446 C 370.389,511.41 358.477,507.6 347.984,500.236 v -0.012 z"
   id="path3790"
   inkscape:connector-curvature="0" />
	<path
   style="fill:#f2f2f2"
   d="m 373.945,360.128 11.901,8.357 -74.464,106.057 -17.915,-12.582 c 8.646,-12.305 13.932,-27.137 14.521,-43.171 l 49.369,-70.308 z"
   id="path3792"
   inkscape:connector-curvature="0" />
	<rect
   x="227.76601"
   y="298.50101"
   style="fill:#f2f2f2"
   width="129.593"
   height="34.813999"
   id="rect3794" />
	<rect
   x="227.76601"
   y="214.468"
   style="fill:#f2f2f2"
   width="129.593"
   height="34.813999"
   id="rect3796" />
	<rect
   x="227.76601"
   y="130.44701"
   style="fill:#f2f2f2"
   width="129.593"
   height="34.813999"
   id="rect3798" />
	<rect
   x="227.76601"
   y="46.414001"
   style="fill:#f2f2f2"
   width="129.593"
   height="34.813999"
   id="rect3800" />
</g>
<path
   style="fill:#ff80af;fill-opacity:1;stroke-width:0.99148881"
   d="M 192.12136,347.68991 V 2.1788887 H 63.640272 V 396.74282 c 0,11.1136 5.414519,21.53019 14.509452,27.91636 L 182.83408,498.1533 c 29.09128,20.42465 69.23964,13.34146 89.58599,-15.80435 v 0 c 20.27197,-29.03772 13.22248,-69.00365 -15.76171,-89.35098 z"
   id="path3804"
   inkscape:connector-curvature="0" />
<g
   id="g3820"
   transform="matrix(0.99148877,0,0,0.99148877,2.1788781,2.1788887)">
	<path
   style="fill:#f2f2f2"
   d="M 127.684,461.96 76.618,426.108 C 67.453,419.667 61.993,409.163 61.993,397.955 v -62.39 c 44.336,0.012 80.258,35.933 80.258,80.27 0,0.993 -0.023,1.985 -0.046,2.967 -0.588,16.021 -5.875,30.853 -14.521,43.158 z"
   id="path3806"
   inkscape:connector-curvature="0" />
	<rect
   x="61.993"
   y="46.414001"
   style="fill:#f2f2f2"
   width="129.58099"
   height="34.813999"
   id="rect3808" />
	<rect
   x="61.993"
   y="130.44701"
   style="fill:#f2f2f2"
   width="129.58099"
   height="34.813999"
   id="rect3810" />
	<rect
   x="61.993"
   y="214.468"
   style="fill:#f2f2f2"
   width="129.58099"
   height="34.813999"
   id="rect3812" />
	<rect
   x="61.993"
   y="298.50101"
   style="fill:#f2f2f2"
   width="129.58099"
   height="34.813999"
   id="rect3814" />
	<path
   style="fill:#f2f2f2"
   d="m 208.162,360.128 11.901,8.357 -74.453,106.057 -17.926,-12.582 c 8.646,-12.305 13.932,-27.137 14.521,-43.159 l 49.369,-70.32 z"
   id="path3816"
   inkscape:connector-curvature="0" />
	<path
   style="fill:#f2f2f2"
   d="m 256.665,394.168 c 10.481,7.364 18.122,17.28 22.659,28.315 l -62.782,89.446 c -11.924,-0.508 -23.848,-4.329 -34.34,-11.693 v -0.012 z"
   id="path3818"
   inkscape:connector-curvature="0" />
</g>
<g
   id="g3822">
</g>
<g
   id="g3824">
</g>
<g
   id="g3826">
</g>
<g
   id="g3828">
</g>
<g
   id="g3830">
</g>
<g
   id="g3832">
</g>
<g
   id="g3834">
</g>
<g
   id="g3836">
</g>
<g
   id="g3838">
</g>
<g
   id="g3840">
</g>
<g
   id="g3842">
</g>
<g
   id="g3844">
</g>
<g
   id="g3846">
</g>
<g
   id="g3848">
</g>
<g
   id="g3850">
</g>
</svg>